# 3ds Max Wavefront OBJ Exporter v0.97b - (c)2007 guruware
# File Created: 19.02.2016 16:52:06

mtllib banan.mtl

#
# object banan
#

v  1.2369 -14.1195 6.1863
v  0.7084 -14.2628 5.8887
v  1.3163 -14.4406 5.8171
v  1.7064 -14.2624 5.9531
v  2.0254 -13.9825 6.4014
v  1.5449 -14.0212 6.3002
v  0.4623 13.1073 10.5612
v  0.5818 12.3264 9.8479
v  0.6071 12.7905 10.6319
v  1.6018 12.6955 10.6274
v  1.6619 12.2293 10.0192
v  1.7651 13.0468 10.5423
v  0.4658 13.9468 11.1372
v  0.3596 13.6338 10.9929
v  0.5814 13.6842 11.1623
v  1.3599 13.8413 10.9351
v  1.1544 13.8643 11.4177
v  1.4915 13.6943 11.2611
v  0.6584 13.9454 11.5461
v  0.9309 13.9589 11.7055
v  0.8640 14.1283 11.5026
v  1.3234 13.5218 11.4726
v  1.0922 13.2670 11.4143
v  1.2571 13.3919 11.2322
v  0.4154 -13.7478 6.4855
v  -0.5893 -12.7008 5.8935
v  0.0812 -13.8391 4.7732
v  -0.9707 -11.0997 5.0081
v  -0.7163 -12.1602 3.3524
v  0.7612 -13.5366 7.1284
v  -0.1169 -11.6331 6.5807
v  -0.2736 -10.4440 6.2992
v  1.2248 -13.7392 4.7891
v  1.1027 -12.6631 3.0542
v  0.9960 -13.9112 6.5195
v  1.2943 -13.6539 6.7195
v  1.8658 -13.5198 6.8418
v  1.4100 -13.4067 7.1433
v  1.3225 -12.1194 6.9861
v  2.1638 -13.6182 4.8934
v  2.4045 -13.0854 5.7929
v  2.5919 -12.1647 3.4222
v  2.2595 -12.1348 6.7818
v  1.0350 -10.3578 6.5590
v  2.3151 -10.5501 6.3368
v  -0.2278 -8.5445 5.7456
v  -1.1234 -8.8157 4.1696
v  1.0917 -8.6281 5.9969
v  -0.9028 -9.5759 2.1316
v  0.9861 -10.0385 1.4738
v  2.7065 -9.8552 2.2143
v  3.0059 -11.5373 5.0174
v  3.0929 -9.2670 4.1656
v  2.3097 -8.6082 5.7590
v  2.3079 -6.3654 5.3400
v  1.0512 -6.2176 5.3846
v  -0.1318 -6.2689 5.2751
v  3.1077 -7.1938 3.5070
v  2.8983 -7.4916 1.6143
v  0.9695 -7.3775 0.4983
v  -0.9589 -7.0570 1.2981
v  -1.1306 -6.4030 3.6488
v  1.0546 -3.4178 5.0421
v  -0.1395 -3.6032 4.9288
v  -1.1013 -3.8732 3.3330
v  2.2157 -3.4987 5.0178
v  3.0970 -4.1936 3.0278
v  2.9467 -4.8925 1.1389
v  1.1491 -4.8281 -0.1463
v  -1.0120 -4.5261 0.9434
v  -0.2348 -0.4434 4.8575
v  -1.0914 -0.5955 3.0675
v  -1.0468 -0.7917 0.7471
v  1.1849 -0.6701 4.9472
v  2.4039 -0.7311 4.8223
v  3.1059 -0.8687 2.6573
v  2.9100 -0.9378 0.5985
v  0.8844 -0.7105 -0.5723
v  -1.0826 2.9303 3.3292
v  -0.9616 3.1233 1.0405
v  0.8498 3.4055 -0.1338
v  -0.3108 2.6537 5.1284
v  1.0743 2.9299 5.3172
v  2.4171 2.9555 5.2036
v  3.0950 2.7915 3.0849
v  2.8666 3.1181 0.8373
v  0.8735 5.9994 0.5189
v  -0.9212 5.7803 1.6198
v  2.9322 5.4986 1.4999
v  -1.1339 5.1924 3.8025
v  -0.3208 4.8525 5.6568
v  1.1316 5.0034 5.7790
v  2.4738 5.0924 5.5919
v  3.0810 5.0713 3.6503
v  0.9416 8.6177 1.6368
v  3.0540 7.9267 2.5931
v  3.0732 7.1753 4.3253
v  -0.6822 8.3550 2.6143
v  -1.1040 7.4957 4.7059
v  -0.2623 7.0218 6.2205
v  1.1305 6.8141 6.3808
v  2.4387 6.8030 6.2084
v  2.8979 9.0292 5.5626
v  2.8244 9.9428 3.9597
v  2.2767 8.4173 6.9905
v  0.9715 10.1961 2.9433
v  -0.4038 10.0187 3.6231
v  -0.8762 9.1755 5.8366
v  0.1397 8.5323 6.9367
v  1.1315 8.4412 7.0572
v  2.3989 10.2169 6.5518
v  2.0457 9.7956 7.8618
v  1.1300 9.6730 7.9071
v  2.2304 11.1668 5.5179
v  1.1334 11.2448 4.6969
v  0.0929 11.2721 4.9580
v  -0.4194 10.1029 6.7687
v  0.1285 9.7436 7.4591
v  1.0590 10.2522 8.4006
v  1.8974 10.3816 8.4254
v  0.2566 10.4658 8.0549
v  2.0309 11.0240 7.6589
v  1.7701 11.7686 7.1299
v  1.1837 11.7918 6.8199
v  0.4735 11.8746 6.7738
v  -0.1062 10.7847 7.5634
v  1.0585 11.3337 9.2956
v  0.4552 11.4363 9.0631
v  0.2203 11.8972 8.7478
v  1.7246 11.4252 9.2755
v  1.8073 11.9367 8.8444
v  1.5804 12.4470 8.4530
v  1.1358 12.4488 8.4231
v  0.6836 12.3972 8.4376
v  1.0446 12.1577 9.9971
v  0.4624 12.6542 9.6409
v  1.6406 12.7996 9.8991
v  1.3576 13.1849 9.5663
v  1.0706 13.1129 9.6000
v  0.7041 12.9139 9.5468
v  0.3996 13.4437 10.5059
v  0.4820 13.6530 10.4387
v  1.0051 12.6565 10.6687
v  1.6949 13.3942 10.4141
v  1.2138 13.9416 10.3596
v  0.7906 13.8528 10.4692
v  0.2543 13.5661 10.7725
v  0.4438 13.9025 10.8286
v  0.7456 14.1159 10.8488
v  0.3026 13.1991 10.8475
v  0.5352 12.7785 10.9993
v  1.0785 12.5918 11.0303
v  1.7676 12.8024 10.9555
v  1.8929 13.2003 10.7995
v  1.8024 13.6139 10.6649
v  1.3514 14.1560 10.6877
v  0.8312 14.1635 11.1149
v  1.2803 14.2047 11.1259
v  0.4612 13.3223 11.0189
v  0.6222 13.0119 11.2131
v  1.0983 12.8153 11.2260
v  1.6363 13.0093 11.1349
v  1.7693 13.2770 10.9228
v  1.6848 13.5356 10.8191
v  1.3713 14.0411 11.1771
v  1.1922 14.1576 11.5602
v  0.7113 13.6601 11.3162
v  0.7263 13.4166 11.1411
v  0.8146 13.1767 11.1631
v  1.0328 13.1002 11.2265
v  1.2650 13.2273 11.0936
v  1.4439 13.3709 10.9652
v  1.3392 13.5536 10.9854
v  1.1119 13.9833 11.7321
v  1.1014 13.8312 11.8238
v  1.2639 14.0476 11.5825
v  0.8389 13.5304 11.4484
v  0.8091 13.7077 11.7645
v  0.8984 13.8418 11.8641
v  0.8463 13.3541 11.3101
v  1.0258 13.7204 11.7406
v  1.0450 13.6207 11.5361
v  1.2960 14.0450 11.5359
# 183 vertices

vn -0.0520 -0.7804 0.6231
vn -0.4197 -0.8754 0.2399
vn 0.0804 -0.9954 0.0528
vn 0.4369 -0.8861 0.1547
vn 0.5855 -0.6795 0.4422
vn -0.0161 -0.7815 0.6236
vn -0.9416 -0.3178 -0.1115
vn -0.7627 -0.4562 0.4584
vn -0.6991 -0.7052 0.1179
vn 0.5535 -0.7665 0.3257
vn 0.7488 -0.4784 0.4587
vn 0.9617 -0.1546 -0.2261
vn -0.8373 0.4588 0.2973
vn -0.7728 -0.0459 0.6330
vn -0.6817 -0.3487 0.6432
vn 0.8748 0.4006 0.2726
vn 0.8849 -0.1402 0.4442
vn 0.9138 0.1246 0.3866
vn -0.8217 0.2791 0.4970
vn -0.2717 0.7549 0.5969
vn -0.3336 0.8618 0.3821
vn 0.6737 -0.3238 0.6643
vn 0.1666 -0.6442 0.7465
vn 0.8522 -0.4750 0.2192
vn -0.5916 -0.6396 0.4908
vn -0.8983 -0.3097 0.3118
vn -0.4975 -0.7750 -0.3897
vn -0.9786 -0.0842 0.1878
vn -0.7332 -0.4933 -0.4680
vn -0.2958 -0.4740 0.8293
vn -0.5615 0.0592 0.8254
vn -0.6080 0.1762 0.7741
vn 0.1033 -0.7869 -0.6084
vn 0.0313 -0.6963 -0.7170
vn -0.1006 -0.7480 0.6560
vn 0.0473 -0.8248 0.5635
vn 0.5096 -0.4497 0.7335
vn 0.1798 -0.3457 0.9210
vn -0.0010 0.1739 0.9848
vn 0.6360 -0.6726 -0.3782
vn 0.9548 -0.2614 0.1417
vn 0.7237 -0.4791 -0.4967
vn 0.7225 0.0698 0.6878
vn -0.0069 0.2662 0.9639
vn 0.6364 0.1841 0.7490
vn -0.5811 0.2130 0.7855
vn -0.9824 0.0240 0.1852
vn 0.0186 0.2710 0.9624
vn -0.7912 -0.2650 -0.5512
vn -0.0006 -0.4289 -0.9034
vn 0.7612 -0.2852 -0.5824
vn 0.9770 -0.1401 0.1608
vn 0.9925 0.0040 0.1222
vn 0.6141 0.1960 0.7645
vn 0.5850 0.1380 0.7992
vn -0.0139 0.1715 0.9851
vn -0.5371 0.1593 0.8284
vn 0.9920 0.0294 0.1231
vn 0.8307 -0.1577 -0.5339
vn 0.0123 -0.2786 -0.9603
vn -0.8051 -0.1487 -0.5742
vn -0.9749 0.0421 0.2186
vn -0.0294 0.0778 0.9965
vn -0.5429 0.0562 0.8379
vn -0.9721 0.0165 0.2340
vn 0.5505 0.0611 0.8326
vn 0.9887 0.0089 0.1499
vn 0.8634 -0.0771 -0.4986
vn 0.0668 -0.1460 -0.9870
vn -0.8363 -0.0711 -0.5437
vn -0.5652 -0.0330 0.8243
vn -0.9807 -0.0021 0.1957
vn -0.8660 -0.0061 -0.5001
vn 0.0168 -0.0295 0.9994
vn 0.6367 -0.0259 0.7707
vn 0.9954 0.0028 0.0953
vn 0.8249 -0.0100 -0.5651
vn -0.0374 -0.0055 -0.9993
vn -0.9858 -0.0294 0.1653
vn -0.8558 0.0880 -0.5098
vn -0.0594 0.1678 -0.9840
vn -0.6006 -0.1267 0.7894
vn -0.0028 -0.1586 0.9873
vn 0.6239 -0.1211 0.7720
vn 0.9951 -0.0129 0.0982
vn 0.8089 0.0896 -0.5811
vn -0.0410 0.3182 -0.9471
vn -0.8378 0.1882 -0.5125
vn 0.8308 0.1643 -0.5317
vn -0.9878 -0.0358 0.1514
vn -0.5781 -0.1919 0.7930
vn 0.0332 -0.2629 0.9642
vn 0.6603 -0.2035 0.7229
vn 0.9934 -0.0295 0.1112
vn -0.0081 0.5101 -0.8601
vn 0.8500 0.2716 -0.4514
vn 0.9900 -0.0244 0.1389
vn -0.8063 0.3383 -0.4852
vn -0.9848 0.0152 0.1729
vn -0.6114 -0.2090 0.7632
vn -0.0194 -0.3493 0.9368
vn 0.6479 -0.2489 0.7199
vn 0.9756 0.0698 0.2080
vn 0.7971 0.5096 -0.3240
vn 0.6042 -0.3368 0.7222
vn 0.0347 0.7242 -0.6887
vn -0.7438 0.5342 -0.4018
vn -0.9620 0.0815 0.2606
vn -0.5184 -0.3529 0.7790
vn -0.0495 -0.4871 0.8720
vn 0.9572 0.2128 0.1962
vn 0.6743 -0.3391 0.6560
vn -0.1116 -0.5854 0.8030
vn 0.6993 0.6969 -0.1588
vn 0.1598 0.8876 -0.4321
vn -0.5692 0.7774 -0.2678
vn -0.9484 0.1301 0.2890
vn -0.6474 -0.3541 0.6749
vn -0.1777 -0.6306 0.7555
vn 0.6610 -0.4077 0.6299
vn -0.6730 -0.4183 0.6100
vn 0.9705 0.2018 0.1322
vn 0.6642 0.7275 -0.1720
vn 0.1574 0.9375 -0.3104
vn -0.4711 0.8616 -0.1891
vn -0.9607 0.1293 0.2457
vn -0.1460 -0.6473 0.7481
vn -0.6778 -0.4377 0.5908
vn -0.9722 0.2244 0.0671
vn 0.6960 -0.4150 0.5860
vn 0.9852 0.1666 0.0393
vn 0.5944 0.7385 -0.3183
vn -0.0261 0.9077 -0.4188
vn -0.5200 0.7917 -0.3206
vn -0.1908 -0.7132 0.6745
vn -0.9783 0.1885 -0.0863
vn 0.9594 0.2343 -0.1572
vn 0.3876 0.7596 -0.5222
vn -0.2643 0.7570 -0.5976
vn -0.5638 0.6712 -0.4813
vn -0.9459 0.0796 -0.3146
vn -0.6973 0.5262 -0.4866
vn -0.1269 -0.9616 0.2434
vn 0.7968 0.2946 -0.5276
vn 0.1575 0.7301 -0.6649
vn -0.3485 0.7146 -0.6066
vn -0.9741 0.1756 -0.1421
vn -0.7024 0.6639 -0.2568
vn -0.3836 0.8859 -0.2608
vn -0.9456 -0.2851 0.1565
vn -0.6576 -0.6810 0.3221
vn 0.0037 -0.9453 0.3263
vn 0.7326 -0.5934 0.3334
vn 0.9908 0.0041 0.1350
vn 0.8726 0.4875 -0.0304
vn 0.4743 0.8435 -0.2520
vn -0.2987 0.9543 0.0074
vn 0.4320 0.9000 0.0581
vn -0.5708 -0.0536 0.8194
vn -0.4277 -0.0735 0.9009
vn 0.0256 -0.3817 0.9239
vn 0.4727 0.0325 0.8806
vn 0.5907 0.3122 0.7440
vn 0.5957 0.4022 0.6952
vn 0.9810 0.1274 0.1461
vn 0.2855 0.8411 0.4593
vn -0.7792 -0.4389 0.4475
vn -0.6226 -0.3100 0.7185
vn -0.2036 0.1223 0.9714
vn -0.0396 -0.2439 0.9690
vn 0.5458 0.1563 0.8232
vn 0.2669 0.1986 0.9430
vn 0.6418 -0.4707 0.6054
vn 0.2659 0.6032 0.7520
vn 0.6167 -0.2243 0.7546
vn 0.8135 0.0386 0.5802
vn -0.5323 -0.6070 0.5901
vn -0.5079 -0.5573 0.6569
vn -0.2471 0.1116 0.9625
vn -0.6587 -0.5511 0.5123
vn 0.4235 -0.7004 0.5745
vn -0.0268 -0.8216 0.5694
vn 0.9005 -0.0567 0.4311
# 183 vertex normals

vt 0.9630 0.2075 0.0000
vt 0.9734 0.1870 0.0000
vt 0.9819 0.2105 0.0000
vt 0.9760 0.2287 0.0000
vt 0.9566 0.2352 0.0000
vt 0.9593 0.2188 0.0000
vt 0.0743 0.9045 0.0000
vt 0.1069 0.8804 0.0000
vt 0.0877 0.9073 0.0000
vt 0.1184 0.9325 0.0000
vt 0.1383 0.9148 0.0000
vt 0.1215 0.9480 0.0000
vt 0.0477 0.9326 0.0000
vt 0.0563 0.9245 0.0000
vt 0.0571 0.9348 0.0000
vt 0.0922 0.9767 0.0000
vt 0.0713 0.9721 0.0000
vt 0.0848 0.9674 0.0000
vt 0.0479 0.9480 0.0000
vt 0.0454 0.9590 0.0000
vt 0.0388 0.9500 0.0000
vt 0.0769 0.9603 0.0000
vt 0.0778 0.9485 0.0000
vt 0.0851 0.9549 0.0000
vt 0.8782 0.1093 0.0000
vt 0.8896 0.1544 0.0000
vt 0.8374 0.1758 0.0000
vt 0.8312 0.1142 0.0000
vt 0.7765 0.2047 0.0000
vt 0.7558 0.1412 0.0000
vt 0.9138 0.1909 0.0000
vt 0.8375 0.2230 0.0000
vt 0.8011 0.2522 0.0000
vt 0.8780 0.0778 0.0000
vt 0.8306 0.0732 0.0000
vt 0.7540 0.0770 0.0000
vt 0.9465 0.1986 0.0000
vt 0.9422 0.1767 0.0000
vt 0.9364 0.2098 0.0000
vt 0.9350 0.2313 0.0000
vt 0.9218 0.2168 0.0000
vt 0.8853 0.2468 0.0000
vt 0.8298 0.0380 0.0000
vt 0.8779 0.0593 0.0000
vt 0.9890 0.2847 0.0000
vt 0.9509 0.2769 0.0000
vt 0.7412 0.0221 0.0000
vt 0.9034 0.2720 0.0000
vt 0.8292 0.2860 0.0000
vt 0.8630 0.3151 0.0000
vt 0.7454 0.3009 0.0000
vt 0.7023 0.2518 0.0000
vt 0.7802 0.3338 0.0000
vt 0.6664 0.1815 0.0000
vt 0.6465 0.1097 0.0000
vt 0.6303 0.0430 0.0000
vt 0.9773 0.3696 0.0000
vt 0.9219 0.3381 0.0000
vt 0.9260 0.4570 0.0000
vt 0.8664 0.4082 0.0000
vt 0.8090 0.3680 0.0000
vt 0.7435 0.4248 0.0000
vt 0.7074 0.3936 0.0000
vt 0.6794 0.3588 0.0000
vt 0.8126 0.4677 0.0000
vt 0.8615 0.5201 0.0000
vt 0.5538 0.1546 0.0000
vt 0.5311 0.0751 0.0000
vt 0.5873 0.2259 0.0000
vt 0.6317 0.3056 0.0000
vt 0.6251 0.4633 0.0000
vt 0.5996 0.4233 0.0000
vt 0.5593 0.3632 0.0000
vt 0.6578 0.4948 0.0000
vt 0.7297 0.5428 0.0000
vt 0.7935 0.5834 0.0000
vt 0.4709 0.2000 0.0000
vt 0.4347 0.1268 0.0000
vt 0.5172 0.2789 0.0000
vt 0.5050 0.4991 0.0000
vt 0.4625 0.4354 0.0000
vt 0.4139 0.3615 0.0000
vt 0.5475 0.5358 0.0000
vt 0.5809 0.5704 0.0000
vt 0.6436 0.6299 0.0000
vt 0.6978 0.6850 0.0000
vt 0.3567 0.2959 0.0000
vt 0.3087 0.2240 0.0000
vt 0.3632 0.5197 0.0000
vt 0.3083 0.4518 0.0000
vt 0.2476 0.3963 0.0000
vt 0.4132 0.5761 0.0000
vt 0.4400 0.6240 0.0000
vt 0.4730 0.6634 0.0000
vt 0.5387 0.7149 0.0000
vt 0.5931 0.7801 0.0000
vt 0.1906 0.3348 0.0000
vt 0.1845 0.4659 0.0000
vt 0.2426 0.5180 0.0000
vt 0.1189 0.4102 0.0000
vt 0.3015 0.5773 0.0000
vt 0.3490 0.6362 0.0000
vt 0.3788 0.6812 0.0000
vt 0.4099 0.7211 0.0000
vt 0.4705 0.7666 0.0000
vt 0.5250 0.8276 0.0000
vt 0.1275 0.5472 0.0000
vt 0.0524 0.5030 0.0000
vt 0.4076 0.8165 0.0000
vt 0.4466 0.8748 0.0000
vt 0.1806 0.5892 0.0000
vt 0.2418 0.6450 0.0000
vt 0.2839 0.6939 0.0000
vt 0.3205 0.7300 0.0000
vt 0.3531 0.7654 0.0000
vt 0.3349 0.8520 0.0000
vt 0.3699 0.9108 0.0000
vt 0.2945 0.8052 0.0000
vt 0.0978 0.6105 0.0000
vt 0.0217 0.6054 0.0000
vt 0.1420 0.6411 0.0000
vt 0.1996 0.7056 0.0000
vt 0.2411 0.7467 0.0000
vt 0.2655 0.7740 0.0000
vt 0.2812 0.8743 0.0000
vt 0.2402 0.8400 0.0000
vt 0.2192 0.8117 0.0000
vt 0.3000 0.9238 0.0000
vt 0.0274 0.6959 0.0000
vt 0.0741 0.6790 0.0000
vt 0.1106 0.6954 0.0000
vt 0.1739 0.7494 0.0000
vt 0.1972 0.7770 0.0000
vt 0.1935 0.8301 0.0000
vt 0.2113 0.8560 0.0000
vt 0.1711 0.8044 0.0000
vt 0.2316 0.8872 0.0000
vt 0.2399 0.9214 0.0000
vt 0.0449 0.7669 0.0000
vt 0.0687 0.7589 0.0000
vt 0.0983 0.7623 0.0000
vt 0.1523 0.7841 0.0000
vt 0.1531 0.8664 0.0000
vt 0.1373 0.8467 0.0000
vt 0.1163 0.8349 0.0000
vt 0.1690 0.8867 0.0000
vt 0.1810 0.9087 0.0000
vt 0.1914 0.9315 0.0000
vt 0.0544 0.8204 0.0000
vt 0.0708 0.8224 0.0000
vt 0.0884 0.8257 0.0000
vt 0.1232 0.8944 0.0000
vt 0.0914 0.8729 0.0000
vt 0.1406 0.9386 0.0000
vt 0.1527 0.9570 0.0000
vt 0.0590 0.8699 0.0000
vt 0.0485 0.8664 0.0000
vt 0.0762 0.8698 0.0000
vt 0.0611 0.9052 0.0000
vt 0.0526 0.9064 0.0000
vt 0.1020 0.9156 0.0000
vt 0.1226 0.9619 0.0000
vt 0.1238 0.9885 0.0000
vt 0.0390 0.9080 0.0000
vt 0.0249 0.9011 0.0000
vt 0.0580 0.9161 0.0000
vt 0.0471 0.9219 0.0000
vt 0.0356 0.9249 0.0000
vt 0.0688 0.9153 0.0000
vt 0.0829 0.9182 0.0000
vt 0.0972 0.9260 0.0000
vt 0.1121 0.9416 0.0000
vt 0.1132 0.9541 0.0000
vt 0.1112 0.9675 0.0000
vt 0.1020 0.9905 0.0000
vt 0.0144 0.9186 0.0000
vt 0.0339 0.9357 0.0000
vt 0.0184 0.9398 0.0000
vt 0.0664 0.9246 0.0000
vt 0.0777 0.9274 0.0000
vt 0.0915 0.9343 0.0000
vt 0.1045 0.9462 0.0000
vt 0.1081 0.9561 0.0000
vt 0.1046 0.9652 0.0000
vt 0.0819 0.9823 0.0000
vt 0.0824 0.9894 0.0000
vt 0.0300 0.9578 0.0000
vt 0.0593 0.9420 0.0000
vt 0.0674 0.9359 0.0000
vt 0.0761 0.9356 0.0000
vt 0.0834 0.9409 0.0000
vt 0.0903 0.9500 0.0000
vt 0.0963 0.9576 0.0000
vt 0.0927 0.9631 0.0000
vt 0.0643 0.9843 0.0000
vt 0.0573 0.9761 0.0000
vt 0.0542 0.9687 0.0000
vt 0.0650 0.9793 0.0000
vt 0.0423 0.9649 0.0000
vt 0.0649 0.9488 0.0000
vt 0.0556 0.9573 0.0000
vt 0.0522 0.9615 0.0000
vt 0.0713 0.9427 0.0000
vt 0.0598 0.9635 0.0000
vt 0.0672 0.9591 0.0000
vt 0.0677 0.9801 0.0000
# 206 texture coords

g banan
usemtl wire_087224198
s 1
f 1/1/1 2/2/2 3/3/3 
f 4/4/4 5/5/5 6/6/6 
f 7/7/7 8/8/8 9/9/9 
f 10/10/10 11/11/11 12/12/12 
f 13/13/13 14/14/14 15/15/15 
f 16/16/16 17/17/17 18/18/18 
f 19/19/19 20/20/20 21/21/21 
f 18/18/18 17/17/17 22/22/22 
f 22/22/22 23/23/23 24/24/24 
f 2/25/2 25/26/25 26/27/26 27/28/27 
f 28/29/28 29/30/29 27/28/27 26/27/26 
f 25/26/25 30/31/30 31/32/31 26/27/26 
f 32/33/32 28/29/28 26/27/26 31/32/31 
f 3/34/3 2/25/2 27/28/27 33/35/33 
f 33/35/33 27/28/27 29/30/29 34/36/34 
f 1/1/1 35/37/35 25/38/25 2/2/2 
f 36/39/36 30/31/30 25/38/25 35/37/35 
f 30/31/30 36/39/36 37/40/37 38/41/38 
f 38/41/38 39/42/39 31/32/31 30/31/30 
f 1/1/1 6/6/6 36/39/36 35/37/35 
f 5/5/5 37/40/37 36/39/36 6/6/6 
f 6/6/6 1/1/1 3/3/3 4/4/4 
f 3/34/3 33/35/33 40/43/40 4/44/4 
f 5/5/5 4/4/4 40/45/40 41/46/41 
f 33/35/33 34/36/34 42/47/42 40/43/40 
f 5/5/5 41/46/41 43/48/43 37/40/37 
f 38/41/38 37/40/37 43/48/43 39/42/39 
f 32/33/32 31/32/31 39/42/39 44/49/44 
f 43/48/43 45/50/45 44/49/44 39/42/39 
f 32/33/32 46/51/46 47/52/47 28/29/28 
f 44/49/44 48/53/48 46/51/46 32/33/32 
f 47/52/47 49/54/49 29/30/29 28/29/28 
f 49/54/49 50/55/50 34/36/34 29/30/29 
f 51/56/51 42/47/42 34/36/34 50/55/50 
f 41/46/41 40/45/40 42/57/42 52/58/52 
f 52/58/52 42/57/42 51/59/51 53/60/53 
f 41/46/41 52/58/52 45/50/45 43/48/43 
f 54/61/54 45/50/45 52/58/52 53/60/53 
f 48/53/48 44/49/44 45/50/45 54/61/54 
f 54/61/54 55/62/55 56/63/56 48/53/48 
f 57/64/57 46/51/46 48/53/48 56/63/56 
f 53/60/53 58/65/58 55/62/55 54/61/54 
f 53/60/53 51/59/51 59/66/59 58/65/58 
f 51/56/51 50/55/50 60/67/60 59/68/59 
f 61/69/61 60/67/60 50/55/50 49/54/49 
f 49/54/49 47/52/47 62/70/62 61/69/61 
f 46/51/46 57/64/57 62/70/62 47/52/47 
f 57/64/57 56/63/56 63/71/63 64/72/64 
f 65/73/65 62/70/62 57/64/57 64/72/64 
f 63/71/63 56/63/56 55/62/55 66/74/66 
f 66/74/66 55/62/55 58/65/58 67/75/67 
f 59/66/59 68/76/68 67/75/67 58/65/58 
f 69/77/69 68/78/68 59/68/59 60/67/60 
f 60/67/60 61/69/61 70/79/70 69/77/69 
f 61/69/61 62/70/62 65/73/65 70/79/70 
f 65/73/65 64/72/64 71/80/71 72/81/72 
f 72/81/72 73/82/73 70/79/70 65/73/65 
f 63/71/63 74/83/74 71/80/71 64/72/64 
f 63/71/63 66/74/66 75/84/75 74/83/74 
f 75/84/75 66/74/66 67/75/67 76/85/76 
f 76/85/76 67/75/67 68/76/68 77/86/77 
f 68/78/68 69/77/69 78/87/78 77/88/77 
f 73/82/73 78/87/78 69/77/69 70/79/70 
f 79/89/79 80/90/80 73/82/73 72/81/72 
f 73/82/73 80/90/80 81/91/81 78/87/78 
f 82/92/82 79/89/79 72/81/72 71/80/71 
f 82/92/82 71/80/71 74/83/74 83/93/83 
f 83/93/83 74/83/74 75/84/75 84/94/84 
f 76/85/76 85/95/85 84/94/84 75/84/75 
f 76/85/76 77/86/77 86/96/86 85/95/85 
f 81/91/81 86/97/86 77/88/77 78/87/78 
f 87/98/87 81/91/81 80/90/80 88/99/88 
f 86/97/86 81/91/81 87/98/87 89/100/89 
f 90/101/90 88/99/88 80/90/80 79/89/79 
f 79/89/79 82/92/82 91/102/91 90/101/90 
f 92/103/92 91/102/91 82/92/82 83/93/83 
f 83/93/83 84/94/84 93/104/93 92/103/92 
f 93/104/93 84/94/84 85/95/85 94/105/94 
f 94/105/94 85/95/85 86/96/86 89/106/89 
f 89/100/89 87/98/87 95/107/95 96/108/96 
f 97/109/97 94/105/94 89/106/89 96/110/96 
f 98/111/98 95/107/95 87/98/87 88/99/88 
f 99/112/99 98/111/98 88/99/88 90/101/90 
f 100/113/100 99/112/99 90/101/90 91/102/91 
f 92/103/92 101/114/101 100/113/100 91/102/91 
f 102/115/102 101/114/101 92/103/92 93/104/93 
f 102/115/102 93/104/93 94/105/94 97/109/97 
f 103/116/103 97/109/97 96/110/96 104/117/104 
f 105/118/105 102/115/102 97/109/97 103/116/103 
f 106/119/106 104/120/104 96/108/96 95/107/95 
f 107/121/107 106/119/106 95/107/95 98/111/98 
f 98/111/98 99/112/99 108/122/108 107/121/107 
f 109/123/109 108/122/108 99/112/99 100/113/100 
f 110/124/110 109/123/109 100/113/100 101/114/101 
f 110/124/110 101/114/101 102/115/102 105/118/105 
f 103/116/103 111/125/111 112/126/112 105/118/105 
f 113/127/113 110/124/110 105/118/105 112/126/112 
f 111/125/111 103/116/103 104/117/104 114/128/114 
f 114/129/114 104/120/104 106/119/106 115/130/115 
f 116/131/116 115/130/115 106/119/106 107/121/107 
f 117/132/117 116/131/116 107/121/107 108/122/108 
f 118/133/118 117/132/117 108/122/108 109/123/109 
f 109/123/109 110/124/110 113/127/113 118/133/118 
f 119/134/119 113/127/113 112/126/112 120/135/120 
f 119/134/119 121/136/121 118/133/118 113/127/113 
f 120/135/120 112/126/112 111/125/111 122/137/122 
f 122/137/122 111/125/111 114/128/114 123/138/123 
f 123/139/123 114/129/114 115/130/115 124/140/124 
f 125/141/125 124/140/124 115/130/115 116/131/116 
f 126/142/126 125/141/125 116/131/116 117/132/117 
f 121/136/121 126/142/126 117/132/117 118/133/118 
f 127/143/127 128/144/128 121/136/121 119/134/119 
f 128/144/128 129/145/129 126/142/126 121/136/121 
f 130/146/130 127/143/127 119/134/119 120/135/120 
f 130/146/130 120/135/120 122/137/122 131/147/131 
f 132/148/132 131/147/131 122/137/122 123/138/123 
f 132/149/132 123/139/123 124/140/124 133/150/133 
f 133/150/133 124/140/124 125/141/125 134/151/134 
f 134/151/134 125/141/125 126/142/126 129/145/129 
f 135/152/135 8/8/8 128/144/128 127/143/127 
f 136/153/136 129/145/129 128/144/128 8/8/8 
f 11/11/11 135/152/135 127/143/127 130/146/130 
f 130/146/130 131/147/131 137/154/137 11/11/11 
f 132/148/132 138/155/138 137/154/137 131/147/131 
f 139/156/139 138/157/138 132/149/132 133/150/133 
f 134/151/134 140/158/140 139/156/139 133/150/133 
f 140/158/140 134/151/134 129/145/129 136/153/136 
f 8/8/8 7/7/7 141/159/141 136/153/136 
f 142/160/142 140/158/140 136/153/136 141/159/141 
f 143/161/143 9/9/9 8/8/8 135/152/135 
f 11/11/11 10/10/10 143/161/143 135/152/135 
f 144/162/144 12/12/12 11/11/11 137/154/137 
f 137/154/137 138/155/138 145/163/145 144/162/144 
f 138/157/138 139/156/139 146/164/146 145/165/145 
f 146/164/146 139/156/139 140/158/140 142/160/142 
f 141/159/141 147/166/147 148/167/148 142/160/142 
f 142/160/142 148/167/148 149/168/149 146/164/146 
f 147/166/147 141/159/141 7/7/7 150/169/150 
f 7/7/7 9/9/9 151/170/151 150/169/150 
f 9/9/9 143/161/143 152/171/152 151/170/151 
f 143/161/143 10/10/10 153/172/153 152/171/152 
f 154/173/154 153/172/153 10/10/10 12/12/12 
f 12/12/12 144/162/144 155/174/155 154/173/154 
f 156/175/156 155/174/155 144/162/144 145/163/145 
f 145/165/145 146/164/146 149/168/149 156/176/156 
f 148/167/148 13/13/13 157/177/157 149/168/149 
f 157/177/157 158/178/158 156/176/156 149/168/149 
f 13/13/13 148/167/148 147/166/147 14/14/14 
f 14/14/14 147/166/147 150/169/150 159/179/159 
f 159/179/159 150/169/150 151/170/151 160/180/160 
f 160/180/160 151/170/151 152/171/152 161/181/161 
f 161/181/161 152/171/152 153/172/153 162/182/162 
f 163/183/163 162/182/162 153/172/153 154/173/154 
f 163/183/163 154/173/154 155/174/155 164/184/164 
f 164/184/164 155/174/155 156/175/156 16/16/16 
f 165/185/165 16/16/16 156/175/156 158/186/158 
f 21/21/21 166/187/166 158/178/158 157/177/157 
f 21/21/21 157/177/157 13/13/13 19/19/19 
f 15/15/15 167/188/167 19/19/19 13/13/13 
f 168/189/168 15/15/15 14/14/14 159/179/159 
f 169/190/169 168/189/168 159/179/159 160/180/160 
f 169/190/169 160/180/160 161/181/161 170/191/170 
f 170/191/170 161/181/161 162/182/162 171/192/171 
f 163/183/163 172/193/172 171/192/171 162/182/162 
f 163/183/163 164/184/164 173/194/173 172/193/172 
f 18/18/18 173/194/173 164/184/164 16/16/16 
f 166/195/166 174/196/174 175/197/175 176/198/176 
f 174/199/174 166/187/166 21/21/21 20/20/20 
f 167/188/167 177/200/177 178/201/178 19/19/19 
f 179/202/179 20/20/20 19/19/19 178/201/178 
f 168/189/168 169/190/169 170/191/170 180/203/180 
f 170/191/170 23/23/23 177/200/177 180/203/180 
f 24/24/24 23/23/23 170/191/170 171/192/171 
f 181/204/181 178/201/178 177/200/177 182/205/182 
f 177/200/177 23/23/23 22/22/22 182/205/182 
f 178/201/178 181/204/181 175/197/175 179/202/179 
f 181/204/181 17/17/17 176/198/176 175/197/175 
f 173/194/173 18/18/18 22/22/22 24/24/24 
f 183/206/183 165/185/165 158/186/158 166/195/166 
f 183/206/183 166/195/166 176/198/176 
f 174/199/174 20/20/20 179/202/179 175/197/175 
f 181/204/181 182/205/182 22/22/22 17/17/17 
f 173/194/173 24/24/24 171/192/171 172/193/172 
f 183/206/183 17/17/17 16/16/16 165/185/165 
f 176/198/176 17/17/17 183/206/183 
f 180/203/180 167/188/167 15/15/15 168/189/168 
f 167/188/167 180/203/180 177/200/177 
# 175 polygons - 12 triangles

